<?xml version="1.0" standalone="no"?>
<!DOCTYPE svg PUBLIC "-//W3C//DTD SVG 20010904//EN"
 "http://www.w3.org/TR/2001/REC-SVG-20010904/DTD/svg10.dtd">
<svg version="1.0" xmlns="http://www.w3.org/2000/svg"
 width="720.000000pt" height="720.000000pt" viewBox="0 0 720.000000 720.000000"
 preserveAspectRatio="xMidYMid meet">
<metadata>
Created by potrace 1.11, written by Peter Selinger 2001-2013
</metadata>
<g transform="translate(0.000000,720.000000) scale(0.100000,-0.100000)"
fill="#000000" stroke="none">
<path d="M3515 6794 c-150 -12 -298 -29 -430 -50 -54 -9 -178 -35 -185 -39 -3
-2 -17 -6 -31 -9 -43 -8 -132 -34 -194 -56 -33 -12 -69 -23 -80 -26 -11 -3
-29 -9 -40 -14 -11 -4 -36 -14 -55 -20 -39 -14 -95 -38 -185 -81 -33 -15 -71
-33 -85 -39 -14 -6 -43 -21 -65 -33 -22 -13 -71 -40 -110 -61 -38 -21 -84 -49
-102 -62 -17 -13 -35 -24 -40 -24 -4 0 -20 -11 -35 -25 -15 -14 -30 -25 -33
-25 -17 0 -95 -65 -95 -79 0 -13 -2 -13 -9 -2 -6 9 -11 10 -15 2 -4 -6 -40
-37 -79 -68 -105 -82 -375 -354 -459 -461 -40 -51 -81 -103 -91 -115 -86 -102
-306 -483 -299 -516 2 -7 -1 -11 -5 -8 -5 3 -14 -6 -20 -21 -6 -15 -25 -60
-43 -100 -35 -81 -89 -226 -95 -257 -3 -11 -9 -31 -14 -45 -15 -42 -35 -115
-33 -122 1 -4 -5 -26 -14 -50 -8 -23 -17 -60 -20 -82 -2 -21 -6 -42 -8 -45 -6
-9 -36 -189 -41 -246 -2 -27 -9 -95 -14 -150 -15 -141 -13 -359 4 -499 8 -66
13 -122 12 -125 -2 -10 15 -105 20 -115 3 -4 7 -25 8 -45 2 -29 18 -105 50
-241 2 -8 4 -21 4 -27 1 -7 18 -21 39 -32 20 -11 31 -20 24 -21 -7 0 -22 5
-32 10 -18 10 -18 8 -3 -42 8 -29 16 -57 18 -63 1 -5 7 -23 13 -38 7 -16 12
-32 12 -37 0 -14 34 -85 43 -88 4 -2 7 -12 7 -21 0 -21 41 -125 70 -175 11
-20 20 -38 20 -41 0 -10 45 -102 69 -140 13 -22 38 -65 54 -95 17 -30 33 -57
37 -60 4 -3 15 -21 26 -40 10 -19 37 -60 59 -90 22 -30 50 -70 63 -89 13 -18
30 -40 38 -49 9 -8 33 -39 54 -68 51 -68 335 -354 424 -427 48 -39 72 -53 77
-45 10 17 2 28 -22 28 -10 0 -19 5 -19 10 0 12 2 12 35 0 23 -9 26 -14 20 -39
-5 -24 -2 -32 16 -42 13 -6 55 -35 94 -63 38 -28 86 -60 105 -70 19 -11 41
-26 49 -34 8 -7 23 -11 33 -9 12 3 18 1 15 -6 -6 -18 169 -116 325 -182 57
-24 80 -30 89 -21 9 8 11 7 6 -7 -5 -12 -1 -17 11 -17 10 0 22 -4 28 -9 5 -5
38 -18 74 -30 36 -12 74 -25 85 -30 40 -17 112 -38 155 -46 8 -1 22 -5 30 -7
27 -10 105 -31 125 -34 11 -2 70 -13 130 -24 329 -63 707 -65 1055 -8 188 31
199 33 285 58 44 12 94 26 110 30 107 27 322 110 485 188 93 44 343 189 392
227 14 11 36 27 48 35 13 8 32 23 42 33 10 9 23 17 28 17 6 0 18 8 28 18 9 9
46 39 82 66 36 27 145 130 243 229 159 161 178 183 172 206 -4 20 -3 22 5 11
9 -13 15 -9 40 20 38 45 159 212 184 253 10 18 30 49 43 69 14 20 22 42 18 47
-3 6 0 11 8 11 7 0 21 15 30 32 9 18 36 69 60 113 23 44 56 109 71 145 16 36
36 83 46 105 10 22 21 51 25 65 4 14 13 39 20 55 32 76 66 198 56 204 -6 4 -7
12 -1 21 9 13 10 13 10 0 1 -8 6 -4 11 10 14 34 49 203 44 209 -3 2 -1 9 4 15
20 24 56 282 56 403 0 33 3 59 8 56 12 -7 8 285 -7 417 -8 69 -14 132 -13 140
1 43 -59 335 -97 475 -58 209 -173 487 -274 660 -9 17 -30 53 -46 80 -107 184
-341 495 -373 495 -7 0 -12 4 -11 8 4 11 -212 228 -223 224 -5 -1 -9 4 -9 11
0 19 -37 50 -49 42 -6 -3 -11 1 -11 9 0 8 -42 47 -92 85 -51 39 -102 78 -113
87 -37 28 -178 119 -184 118 -3 0 -14 7 -23 15 -9 9 -54 35 -100 59 -46 23
-90 47 -98 52 -15 9 -166 80 -205 95 -11 5 -24 7 -29 6 -5 -1 -12 2 -15 8 -7
11 -145 60 -286 101 -55 17 -124 37 -153 45 -28 9 -70 17 -92 18 -22 1 -40 5
-40 10 0 5 -11 7 -25 5 -14 -3 -25 -2 -25 2 0 5 -19 10 -42 13 -291 31 -369
38 -401 34 -20 -3 -35 -1 -32 3 5 8 -123 10 -210 4z m1025 -187 c0 -2 -10 -12
-22 -23 l-23 -19 19 23 c18 21 26 27 26 19z m-310 -26 c0 -5 -7 -12 -16 -15
-14 -5 -15 -4 -4 9 14 17 20 19 20 6z m220 -4 c0 -2 -9 -12 -20 -22 -24 -21
-27 -14 -4 9 15 15 24 20 24 13z m-507 -36 c-9 -12 -22 -21 -27 -21 -5 0 1 11
14 25 28 30 39 26 13 -4z m-63 -1 c0 -5 -5 -10 -11 -10 -5 0 -7 5 -4 10 3 6 8
10 11 10 2 0 4 -4 4 -10z m-37 -21 c56 -6 122 -13 147 -14 46 -4 211 -31 243
-41 10 -3 17 0 17 7 0 9 4 8 13 -3 6 -9 28 -18 47 -22 85 -14 348 -100 445
-145 22 -10 51 -22 64 -26 35 -11 214 -104 294 -153 37 -23 72 -42 77 -42 6 0
10 -4 10 -8 0 -5 12 -15 28 -23 15 -8 29 -16 32 -19 15 -15 90 -70 95 -70 4 0
57 -42 118 -92 61 -51 114 -92 119 -90 5 1 11 -5 15 -15 8 -21 136 -148 157
-156 9 -4 15 -10 14 -14 -2 -5 34 -52 78 -105 64 -75 84 -94 94 -85 10 9 11 7
5 -10 -5 -18 4 -37 39 -82 25 -33 46 -62 46 -65 0 -4 15 -29 33 -56 20 -31 37
-48 46 -45 10 4 12 -1 8 -16 -4 -14 4 -36 21 -63 40 -60 125 -235 175 -361 43
-107 114 -330 123 -383 3 -15 7 -34 10 -42 6 -17 33 -165 40 -220 2 -19 9 -69
14 -111 15 -112 16 -539 1 -629 -7 -41 -14 -93 -17 -115 -2 -22 -8 -60 -13
-85 -27 -124 -35 -167 -35 -190 -1 -14 -7 -31 -13 -38 -7 -7 -13 -18 -13 -23
0 -13 17 -11 24 4 3 6 4 3 3 -8 -2 -12 -10 -19 -21 -19 -9 1 -15 0 -13 -3 6
-5 -65 -221 -88 -270 -8 -17 -15 -34 -15 -38 0 -3 -30 -68 -66 -143 -69 -142
-177 -331 -226 -393 -15 -20 -28 -39 -28 -42 0 -3 -11 -18 -25 -33 -14 -15
-23 -29 -21 -31 2 -2 -8 -16 -23 -32 -14 -15 -44 -50 -66 -76 -68 -82 -285
-297 -380 -375 -49 -41 -94 -80 -98 -87 -5 -7 -12 -11 -17 -8 -5 3 -17 -5 -27
-18 -10 -13 -21 -23 -25 -23 -5 1 -39 -20 -183 -114 -61 -40 -310 -164 -400
-200 -78 -31 -275 -99 -305 -105 -41 -9 -116 -30 -120 -35 -3 -3 -23 -6 -45
-8 -22 -1 -69 -9 -105 -16 -220 -48 -646 -55 -935 -15 -44 6 -88 12 -97 13
-10 1 -21 5 -24 9 -4 4 -17 7 -29 7 -55 0 -441 112 -480 140 -5 3 -32 15 -60
24 -73 27 -252 113 -313 152 -29 19 -55 34 -57 34 -3 0 -49 29 -102 65 -151
99 -355 266 -473 386 -58 60 -112 109 -119 109 -7 0 -9 5 -6 10 4 6 -6 26 -22
44 -15 18 -50 63 -78 99 -51 67 -65 78 -65 52 0 -8 -4 -15 -10 -15 -13 0 -13
6 0 30 8 15 6 24 -10 40 -11 11 -20 23 -20 26 0 4 -20 37 -45 75 -25 38 -45
71 -45 75 0 3 -13 25 -29 48 -15 24 -50 87 -76 142 -27 54 -52 101 -57 102 -4
2 -8 12 -8 22 0 10 -13 48 -29 85 l-28 67 -83 40 c-45 21 -80 41 -78 44 4 3
66 -23 150 -64 3 -2 -9 41 -27 95 -33 97 -88 303 -89 334 0 9 -6 15 -13 12
-16 -6 -17 9 -2 24 7 7 7 24 0 54 -25 117 -35 253 -35 517 -1 155 2 282 6 282
4 0 9 21 13 48 6 47 28 172 47 267 9 48 27 113 49 182 5 18 12 40 13 50 15 76
219 541 258 587 5 6 40 58 78 116 92 139 123 182 196 271 62 74 376 389 389
389 7 0 22 13 76 63 10 9 23 17 27 17 5 0 17 8 28 19 11 10 39 30 61 44 22 14
46 31 54 39 8 7 25 19 39 26 14 7 39 21 55 32 52 33 316 170 329 170 3 0 29
11 58 24 110 49 356 128 468 150 153 30 214 40 350 54 202 22 366 26 493 11z
m-2126 -561 c-3 -8 -6 -5 -6 6 -1 11 2 17 5 13 3 -3 4 -12 1 -19z m0 -60 c-3
-8 -6 -5 -6 6 -1 11 2 17 5 13 3 -3 4 -12 1 -19z m-1002 -3158 c3 -5 1 -10 -4
-10 -6 0 -11 5 -11 10 0 6 2 10 4 10 3 0 8 -4 11 -10z m112 -272 c-3 -8 -6 -5
-6 6 -1 11 2 17 5 13 3 -3 4 -12 1 -19z m660 -842 c-3 -8 7 -25 24 -39 27 -22
29 -27 20 -63 -9 -37 -9 -37 -11 -9 -1 17 -4 24 -7 17 -2 -6 -9 -9 -14 -6 -6
3 -18 -1 -27 -9 -16 -14 -17 -12 -20 28 -2 29 3 54 14 70 18 27 29 33 21 11z
m-60 -68 c-3 -8 -6 -5 -6 6 -1 11 2 17 5 13 3 -3 4 -12 1 -19z m3 -69 c0 -22
-4 -38 -8 -35 -8 5 -4 76 4 76 2 0 4 -18 4 -41z m88 -39 c-7 -10 -14 -18 -15
-16 -6 6 9 36 18 36 5 0 4 -9 -3 -20z"/>
<path d="M3340 5883 c-58 -9 -107 -19 -110 -22 -3 -3 -22 -7 -42 -9 -50 -4
-180 -37 -173 -44 3 -3 -4 -6 -17 -6 -28 -1 -45 -6 -81 -20 -16 -7 -34 -12
-41 -12 -7 0 -21 -7 -32 -15 -10 -8 -27 -15 -36 -15 -10 0 -18 -5 -18 -11 0
-5 -4 -8 -10 -4 -16 10 -254 -112 -382 -196 -68 -45 -125 -85 -128 -88 -3 -4
-27 -25 -55 -46 -58 -47 -58 -47 -164 -150 -46 -44 -102 -102 -124 -129 -23
-27 -56 -66 -72 -85 -44 -52 -95 -128 -95 -140 0 -6 -4 -11 -8 -11 -5 0 -22
-24 -37 -52 -16 -29 -31 -55 -34 -58 -13 -11 -32 -52 -27 -58 3 -3 -3 -12 -15
-20 -17 -12 -18 -16 -7 -30 11 -13 11 -14 -2 -10 -17 5 -43 -45 -102 -202 -73
-192 -111 -330 -123 -450 -3 -25 -10 -69 -15 -99 -13 -71 -13 -461 0 -532 5
-30 12 -72 15 -94 9 -78 64 -299 89 -365 8 -19 24 -62 37 -95 29 -77 136 -295
156 -317 9 -10 13 -18 9 -18 -8 0 38 -72 81 -126 18 -23 33 -46 33 -52 0 -6
11 -19 25 -28 14 -9 25 -21 25 -26 0 -29 226 -269 325 -346 33 -26 62 -47 65
-47 3 0 16 -11 30 -24 24 -21 37 -31 134 -97 152 -103 454 -239 616 -279 266
-65 355 -76 610 -76 194 0 371 15 444 38 11 3 58 13 104 23 46 10 87 22 91 26
3 5 20 10 36 12 17 2 68 19 115 38 46 19 90 34 97 34 7 0 13 5 13 10 0 6 6 10
14 10 21 0 249 118 262 135 6 8 15 15 20 15 17 0 104 65 104 78 0 7 4 11 9 8
14 -9 41 5 41 21 0 8 4 12 8 9 7 -4 36 16 117 84 65 54 275 273 275 286 0 8 4
14 8 14 5 0 21 18 38 41 16 22 34 46 39 52 62 71 226 371 274 502 54 144 70
191 77 230 2 13 9 36 14 51 6 15 9 29 6 31 -2 2 2 24 9 48 8 24 11 53 8 66 -5
17 -3 20 7 14 9 -6 12 -4 8 6 -3 8 0 46 8 84 21 112 18 473 -6 615 -35 210
-59 302 -120 468 -64 175 -210 451 -238 452 -8 0 -12 6 -10 12 5 13 -7 30
-114 169 -77 101 -324 340 -344 332 -8 -3 -14 -1 -12 4 4 12 -79 83 -96 83 -6
0 -17 9 -24 21 -11 17 -16 19 -29 7 -14 -11 -16 -11 -10 4 5 13 -5 22 -41 40
-26 13 -55 30 -64 38 -21 19 -211 114 -293 147 -110 44 -277 95 -355 109 -14
3 -32 7 -40 9 -8 3 -33 7 -55 10 -22 2 -64 9 -93 15 -29 5 -153 12 -275 14
-175 4 -244 2 -327 -11z m590 -33 c0 -5 -5 -10 -11 -10 -5 0 -7 5 -4 10 3 6 8
10 11 10 2 0 4 -4 4 -10z m-250 -43 c0 -2 -9 -15 -21 -28 -12 -13 -27 -33 -35
-43 -7 -11 -17 -17 -21 -13 -4 4 11 25 32 47 37 38 45 44 45 37z m50 -20 c0
-2 -9 -12 -20 -22 -24 -21 -27 -14 -4 9 15 15 24 20 24 13z m-60 -61 c0 -2 -8
-10 -17 -17 -16 -13 -17 -12 -4 4 13 16 21 21 21 13z m950 -164 c0 -5 -7 -17
-15 -28 -14 -18 -14 -17 -4 9 12 27 19 34 19 19z m-1200 -327 l0 -285 120 0
121 0 -3 285 c-2 157 0 285 5 285 4 0 85 1 180 1 l172 0 3 -284 2 -285 23 -5
c12 -3 47 -9 77 -12 213 -24 456 -116 579 -220 33 -28 101 -96 101 -101 0 -2
10 -21 23 -42 51 -82 64 -141 62 -273 -2 -131 -5 -154 -31 -214 -8 -20 -13
-39 -10 -42 5 -5 -2 -15 -31 -48 -7 -7 -13 -19 -13 -26 0 -16 -120 -132 -172
-167 -25 -16 -35 -28 -27 -30 8 -3 52 -23 99 -45 91 -43 180 -106 225 -159 16
-18 33 -32 38 -30 5 2 7 -4 4 -12 -4 -9 -2 -18 4 -21 13 -9 51 -82 67 -130 28
-87 36 -238 19 -380 -5 -38 -9 -78 -10 -87 -1 -10 -4 -18 -8 -18 -4 0 -9 -14
-13 -31 -6 -32 -55 -150 -66 -159 -3 -3 -16 -21 -28 -41 -23 -39 -124 -137
-170 -166 -15 -10 -30 -21 -33 -26 -3 -5 -10 -9 -15 -10 -5 0 -33 -11 -62 -24
-62 -27 -162 -63 -162 -58 0 2 -15 -1 -32 -6 -49 -15 -272 -39 -360 -39 l-78
0 0 -290 0 -290 -170 0 c-129 0 -170 -3 -170 -12 0 -9 -4 -8 -10 2 -6 9 -10
134 -10 303 l0 287 -120 0 -120 0 0 -296 c0 -266 -2 -296 -16 -290 -9 3 -87 6
-175 6 l-159 0 0 290 0 290 -342 0 c-275 -1 -344 1 -346 12 -1 7 1 91 5 187
l8 173 146 -1 c80 -1 158 3 173 8 42 17 73 61 85 121 14 73 14 1609 0 1663 -5
20 -14 37 -20 37 -6 0 -8 4 -5 8 3 5 -12 19 -33 30 -36 20 -53 22 -210 22
l-171 0 0 180 0 180 38 1 c20 0 180 0 355 -1 l317 -1 0 288 0 288 175 -3 175
-3 0 -284z m1440 201 c0 -2 -8 -10 -17 -17 -16 -13 -17 -12 -4 4 13 16 21 21
21 13z m-50 -80 c0 -2 -8 -10 -17 -17 -16 -13 -17 -12 -4 4 13 16 21 21 21 13z
m20 -90 c0 -2 -8 -10 -17 -17 -16 -13 -17 -12 -4 4 13 16 21 21 21 13z m-1895
-3416 c3 -6 -1 -7 -9 -4 -18 7 -21 14 -7 14 6 0 13 -4 16 -10z"/>
<path d="M3420 4217 l0 -357 230 0 c153 0 230 3 230 10 0 7 13 8 34 5 75 -15
212 86 263 193 24 50 27 69 27 157 1 82 -3 108 -20 145 -23 46 -56 83 -96 106
-62 35 -105 55 -128 59 -14 3 -41 9 -60 15 -19 6 -135 14 -257 17 l-223 6 0
-356z m383 53 c-3 -12 -8 -19 -11 -16 -5 6 5 36 12 36 2 0 2 -9 -1 -20z m-163
-154 c0 -2 -8 -10 -17 -17 -16 -13 -17 -12 -4 4 13 16 21 21 21 13z m121 -52
c5 -15 8 -29 5 -31 -2 -2 -8 10 -14 26 -13 38 -5 41 9 5z"/>
<path d="M3425 3502 c-3 -3 -5 -176 -5 -384 l0 -378 278 0 c298 0 361 9 471
62 87 42 164 129 196 220 17 49 21 238 5 238 -5 0 -7 6 -4 13 7 19 -66 109
-109 136 -38 23 -150 67 -194 76 -101 20 -621 34 -638 17z m242 -154 c-3 -8
-6 -5 -6 6 -1 11 2 17 5 13 3 -3 4 -12 1 -19z"/>
<path d="M1475 1573 c3 -8 5 -17 5 -19 0 -2 5 -4 10 -4 6 0 10 8 10 18 0 10
-7 19 -15 19 -10 0 -14 -6 -10 -14z"/>
</g>
</svg>
